<?xml version="1.0" encoding="utf-8"?>
<!-- Generator: Adobe Illustrator 19.2.1, SVG Export Plug-In . SVG Version: 6.00 Build 0)  -->
<svg version="1.1" id="Layer_1" xmlns="http://www.w3.org/2000/svg" xmlns:xlink="http://www.w3.org/1999/xlink" x="0px" y="0px"
	 viewBox="0 0 64 64" style="enable-background:new 0 0 64 64;" xml:space="preserve">
<style type="text/css">
	.st0{stroke:#000000;stroke-width:2;stroke-miterlimit:10;}
</style>
<g>
	<g>
		<g>
			<g>
				<path class="st0" d="M56.1,59.6H7.9c-1.9,0-3.4-1.6-3.4-3.4v-44c0-1.9,1.6-3.4,3.4-3.4h48.3c1.9,0,3.4,1.6,3.4,3.4v44
					C59.6,58,58,59.6,56.1,59.6z M7.9,12.2v44h48.3v-44H7.9z"/>
			</g>
		</g>
	</g>
	<g>
		<g>
			<g>
				<rect x="18.2" y="4.4" class="st0" width="3.4" height="12.1"/>
			</g>
		</g>
	</g>
	<g>
		<g>
			<g>
				<rect x="42.3" y="4.4" class="st0" width="3.4" height="12.1"/>
			</g>
		</g>
	</g>
	<g>
		<g>
			<g>
				<rect x="6.1" y="21.7" class="st0" width="51.7" height="3.4"/>
			</g>
		</g>
	</g>
	<g>
		<g>
			<g>
				<rect x="42.3" y="32" class="st0" width="8.6" height="3.4"/>
			</g>
		</g>
	</g>
	<g>
		<g>
			<g>
				<rect x="42.3" y="44.9" class="st0" width="8.6" height="3.4"/>
			</g>
		</g>
	</g>
	<g>
		<g>
			<g>
				<rect x="27.7" y="32" class="st0" width="8.6" height="3.4"/>
			</g>
		</g>
	</g>
	<g>
		<g>
			<g>
				<rect x="27.7" y="44.9" class="st0" width="8.6" height="3.4"/>
			</g>
		</g>
	</g>
	<g>
		<g>
			<g>
				<rect x="13" y="32" class="st0" width="8.6" height="3.4"/>
			</g>
		</g>
	</g>
	<g>
		<g>
			<g>
				<rect x="13" y="44.9" class="st0" width="8.6" height="3.4"/>
			</g>
		</g>
	</g>
</g>
</svg>
