<?xml version="1.0" encoding="utf-8"?>
<!-- Generator: Adobe Illustrator 19.2.1, SVG Export Plug-In . SVG Version: 6.00 Build 0)  -->
<svg version="1.1" id="Layer_1" xmlns="http://www.w3.org/2000/svg" xmlns:xlink="http://www.w3.org/1999/xlink" x="0px" y="0px"
	 viewBox="0 0 64 64" style="enable-background:new 0 0 64 64;" xml:space="preserve">
<style type="text/css">
	.st0{fill:#FFFFFF;stroke:#000000;stroke-width:4;stroke-miterlimit:10;}
</style>
<g>
	<g>
		<g>
			<path class="st0" d="M58.2,11.7c-0.1-0.2-0.2-0.3-0.3-0.3c-0.2,0-0.3,0-0.4,0.1l-7.3,7.3c-0.7,0.7-1.5,1-2.6,1
				c-0.9,0-1.9-0.3-2.6-1c-0.7-0.7-1-1.5-1-2.6c0-0.9,0.3-1.9,1-2.6l7.4-7.3c0.1-0.1,0.2-0.3,0.1-0.4c0-0.2-0.1-0.3-0.3-0.3
				c-1.5-0.7-3.2-1-4.9-1c-3.2,0-6.2,1.3-8.4,3.6c-3.3,3.3-4.4,8.4-2.8,12.8L21.4,35.9c-1.5-0.7-3.2-1-4.9-1c-3.2,0-6.2,1.3-8.4,3.6
				C4.6,42,3.7,47.7,5.7,52.3c0.1,0.1,0.2,0.2,0.3,0.2s0.3,0,0.4-0.1l8.2-8.2c0.7-0.7,1.5-1,2.6-1c0.9,0,1.9,0.3,2.6,1
				c1.4,1.4,1.4,3.7,0,5l-8.4,8.3c-0.1,0.1-0.2,0.3-0.1,0.4c0,0.2,0.1,0.3,0.3,0.3c1.5,0.7,3.2,1.1,4.9,1.1c3.2,0,6.2-1.3,8.4-3.6
				c3.2-3.3,4.4-8.4,2.7-12.9l14.9-14.8c1.5,0.7,3.2,1,4.9,1l0,0c3.2,0,6.2-1.3,8.4-3.6C59.4,21.9,60.3,16.3,58.2,11.7z"/>
		</g>
	</g>
</g>
</svg>
